<?xml version="1.0" encoding="utf-8"?>
<!-- Truck icon by Arthur Shlain from Usefulicons.com -->
<svg xmlns="http://www.w3.org/2000/svg" xmlns:xlink="http://www.w3.org/1999/xlink" xml:space="preserve" version="1.1" x="0px" y="0px" viewBox="0 0 100 100" width="400px" height="400px"><g style="fill: #ffffff"><path d="M82.5,30L65,30L65,22.5C65,21.119,63.881,20,62.5,20L7.5,20C6.119,20,5,21.119,5,22.5L5,67.5C5,68.881,6.119,70,7.5,70L12.5,70C12.5,75.514,16.986,80,22.5,80S32.5,75.514,32.5,70L67.5,70C67.5,75.514,71.986,80,77.5,80S87.5,75.514,87.5,70L92.5,70C93.881,70,95,68.881,95,67.5L95,42.5C95,35.607,89.393,30,82.5,30ZM22.5,75C19.743,75,17.5,72.757,17.5,70S19.743,65,22.5,65S27.5,67.243,27.5,70S25.257,75,22.5,75ZM60,65L31.147,65C29.415,62.016,26.192,60,22.5,60S15.585,62.016,13.853,65L10,65L10,55L60,55L60,65ZM60,50L10,50L10,25L60,25L60,50ZM77.5,75C74.743,75,72.5,72.757,72.5,70S74.743,65,77.5,65S82.5,67.243,82.5,70S80.257,75,77.5,75ZM90,65L86.147,65C84.415,62.016,81.192,60,77.5,60S70.585,62.016,68.853,65L65,65L65,35L82.5,35C86.636,35,90,38.364,90,42.5L90,65Z" stroke="none"></path><path d="M82.5,40L72.5,40C71.119,40,70,41.119,70,42.5L70,52.5C70,53.881,71.119,55,72.5,55L82.5,55C83.881,55,85,53.881,85,52.5L85,42.5C85,41.119,83.881,40,82.5,40ZM80,50L75,50L75,45L80,45L80,50Z" stroke="none"></path></g></svg>